<?xml version="1.0" encoding="utf-8"?>
<!-- Generator: Adobe Illustrator 23.0.2, SVG Export Plug-In . SVG Version: 6.00 Build 0)  -->
<svg version="1.1" id="레이어_1" xmlns="http://www.w3.org/2000/svg" xmlns:xlink="http://www.w3.org/1999/xlink" x="0px"
	 y="0px" viewBox="0 0 354 25" style="enable-background:new 0 0 354 25;" xml:space="preserve">
<style type="text/css">
	.st0{enable-background:new    ;}
	.st1{fill:#FFFFFF;}
	.st2{fill:#0092FF;}
</style>
<title>Horiz Logo</title>
<desc>Created with Sketch.</desc>
<g class="st0">
	<path class="st1" d="M121.6,13.5c-0.2,0-0.4,0-0.5-0.1c-0.1-0.1-0.2-0.2-0.2-0.3V6.2c0-0.1,0.1-0.2,0.2-0.3
		c0.1-0.1,0.3-0.1,0.5-0.1h5.2c0.2,0,0.4,0,0.5,0.1c0.1,0.1,0.2,0.2,0.2,0.3v0.1c0,0.1-0.1,0.2-0.2,0.3c-0.2,0.1-0.3,0.1-0.5,0.1
		h-4.3v2.3h3.9c0.2,0,0.3,0,0.5,0.1c0.2,0.1,0.2,0.2,0.2,0.3v0.1c0,0.1-0.1,0.2-0.2,0.3c-0.1,0.1-0.3,0.1-0.5,0.1h-3.9v2.5h4.3
		c0.2,0,0.4,0,0.5,0.1c0.1,0.1,0.2,0.2,0.2,0.3v0.1c0,0.1-0.1,0.2-0.2,0.3c-0.2,0.1-0.3,0.1-0.5,0.1H121.6z"/>
	<path class="st1" d="M139.9,13.5c-0.1,0-0.2,0-0.3,0c-0.1,0-0.3-0.1-0.4-0.2l-2.7-2.9l-2.7,2.9c-0.1,0.1-0.2,0.1-0.4,0.2
		c-0.1,0-0.3,0-0.3,0h-0.3c-0.3,0-0.5-0.1-0.6-0.2c-0.1-0.1-0.1-0.3,0-0.4l3.2-3.5l-3-3c-0.1-0.1-0.1-0.2-0.1-0.4
		c0-0.2,0.3-0.2,0.7-0.2h0.3c0.3,0,0.6,0.1,0.7,0.3l2.4,2.5l2.5-2.5c0.1-0.1,0.2-0.1,0.3-0.2c0.1-0.1,0.2-0.1,0.4-0.1h0.3
		c0.4,0,0.6,0.1,0.6,0.2c0,0.2,0,0.3-0.1,0.4l-3,3l3.3,3.5c0,0,0,0.1,0,0.1c0,0.1,0,0.1,0,0.2c0,0.1-0.1,0.1-0.2,0.2
		c-0.1,0-0.2,0.1-0.4,0.1H139.9z"/>
	<path class="st1" d="M147.4,10.8v2.3c0,0.1-0.1,0.2-0.2,0.3c-0.1,0.1-0.3,0.1-0.5,0.1h-0.3c-0.2,0-0.4,0-0.5-0.1
		c-0.1-0.1-0.2-0.2-0.2-0.3V6.2c0-0.1,0.1-0.2,0.2-0.3c0.1-0.1,0.3-0.1,0.5-0.1h4c0.9,0,1.6,0.2,2.1,0.5c0.5,0.3,0.7,0.8,0.7,1.3
		v1.3c0,0.5-0.2,1-0.7,1.3c-0.5,0.3-1.2,0.5-2.1,0.5H147.4z M151.7,7.6c0-0.6-0.4-0.9-1.3-0.9h-3v3h3c0.4,0,0.7-0.1,0.9-0.2
		c0.2-0.1,0.3-0.4,0.3-0.7V7.6z"/>
	<path class="st1" d="M159.4,13.5c-0.2,0-0.4,0-0.5-0.1c-0.1-0.1-0.2-0.2-0.2-0.3V6.2c0-0.1,0.1-0.2,0.2-0.3
		c0.1-0.1,0.3-0.1,0.5-0.1h0.2c0.3,0,0.5,0.1,0.6,0.2c0.1,0.1,0.1,0.2,0.1,0.3v6.3h4.5c0.2,0,0.4,0,0.5,0.1c0.1,0.1,0.2,0.2,0.2,0.3
		v0.2c0,0.1-0.1,0.2-0.2,0.3c-0.1,0.1-0.3,0.1-0.5,0.1H159.4z"/>
	<path class="st1" d="M173.3,13.5c-0.9,0-1.6-0.2-2.1-0.5c-0.5-0.3-0.8-0.8-0.8-1.3V7.6c0-0.5,0.3-1,0.8-1.3
		c0.5-0.3,1.2-0.5,2.1-0.5h2.2c0.9,0,1.6,0.2,2.1,0.5c0.5,0.3,0.8,0.8,0.8,1.3v4.1c0,0.6-0.3,1-0.8,1.3c-0.5,0.3-1.2,0.5-2.1,0.5
		H173.3z M176.7,7.6c0-0.6-0.4-0.9-1.3-0.9h-2.2c-0.8,0-1.3,0.3-1.3,0.9v4c0,0.6,0.4,0.9,1.3,0.9h2.2c0.8,0,1.3-0.3,1.3-0.9V7.6z"/>
	<path class="st1" d="M190.6,13.5c-0.3,0-0.5-0.1-0.7-0.2l-2-2.7h-2.4v2.5c0,0.1-0.1,0.2-0.2,0.3c-0.2,0.1-0.3,0.1-0.5,0.1h-0.2
		c-0.2,0-0.3,0-0.5-0.1c-0.2-0.1-0.3-0.2-0.3-0.3V6.2c0-0.1,0.1-0.2,0.2-0.3c0.2-0.1,0.3-0.1,0.5-0.1h3.9c0.9,0,1.6,0.2,2.1,0.5
		c0.5,0.3,0.8,0.8,0.8,1.3v1.1c0,0.9-0.6,1.4-1.8,1.7l1.9,2.5c0.1,0.1,0.1,0.2,0.1,0.3c0,0.2-0.2,0.2-0.6,0.2H190.6z M189.7,7.6
		c0-0.6-0.4-0.9-1.3-0.9h-3v2.8h3c0.9,0,1.3-0.3,1.3-0.9V7.6z"/>
	<path class="st1" d="M197.6,13.5c-0.2,0-0.4,0-0.5-0.1c-0.1-0.1-0.2-0.2-0.2-0.3V6.2c0-0.1,0.1-0.2,0.2-0.3
		c0.1-0.1,0.3-0.1,0.5-0.1h5.2c0.2,0,0.4,0,0.5,0.1c0.1,0.1,0.2,0.2,0.2,0.3v0.1c0,0.1-0.1,0.2-0.2,0.3c-0.2,0.1-0.3,0.1-0.5,0.1
		h-4.3v2.3h3.9c0.2,0,0.3,0,0.5,0.1c0.2,0.1,0.2,0.2,0.2,0.3v0.1c0,0.1-0.1,0.2-0.2,0.3c-0.1,0.1-0.3,0.1-0.5,0.1h-3.9v2.5h4.3
		c0.2,0,0.4,0,0.5,0.1c0.1,0.1,0.2,0.2,0.2,0.3v0.1c0,0.1-0.1,0.2-0.2,0.3c-0.2,0.1-0.3,0.1-0.5,0.1H197.6z"/>
	<path class="st1" d="M215.7,13.5c-0.3,0-0.5-0.1-0.7-0.2l-2-2.7h-2.4v2.5c0,0.1-0.1,0.2-0.2,0.3c-0.2,0.1-0.3,0.1-0.5,0.1h-0.2
		c-0.2,0-0.3,0-0.5-0.1c-0.2-0.1-0.3-0.2-0.3-0.3V6.2c0-0.1,0.1-0.2,0.2-0.3c0.2-0.1,0.3-0.1,0.5-0.1h3.9c0.9,0,1.6,0.2,2.1,0.5
		c0.5,0.3,0.8,0.8,0.8,1.3v1.1c0,0.9-0.6,1.4-1.8,1.7l1.9,2.5c0.1,0.1,0.1,0.2,0.1,0.3c0,0.2-0.2,0.2-0.6,0.2H215.7z M214.9,7.6
		c0-0.6-0.4-0.9-1.3-0.9h-3v2.8h3c0.9,0,1.3-0.3,1.3-0.9V7.6z"/>
</g>
<g>
	<g>
		<path class="st2" d="M3.8,4.4h7.7c3.4,2.3,5.3,3.5,5.6,3.8c3.8-2.5,5.8-3.8,6.1-3.8h11v0.2c-5.6,3.5-9.5,5.9-11.6,7.3
			c2,0.9,5.6,3.6,10.7,8.2c2.5,2.7,3.7,4.2,3.7,4.5h-0.1c-8.1-4.8-14.1-7.9-18-9.4c-4,1.6-9.9,4.8-17.9,9.4v-0.1
			c1.4-2.6,3.8-5.8,7.4-9.7c0.1,0,0.9-0.7,2.4-2.1l2.6-2.1l-9.7-6V4.4z"/>
	</g>
	<g>
		<path class="st1" d="M34.8,4.8h16.1c1,0,1.9,0.5,2.5,1.6c0.1,0.4,0.1,0.7,0.1,0.9c0,0.8-0.3,1.7-0.9,2.7c-1.1,1-3.1,1.5-6,1.5
			h-7.3c-0.1,0-0.4,1.1-1.1,3.3c-0.2,0.6-0.4,1-0.4,1.1H33l-0.1-0.1c1.1-3.3,2-6.4,2.8-9.2V6.2C35.7,5.8,35.4,5.3,34.8,4.8L34.8,4.8
			z M40,9.1h8.1c0.3-0.8,0.4-1.3,0.4-1.4V7.5c0-0.3-0.1-0.4-0.4-0.4h-6.3c-0.8,0-1.2,0.3-1.4,1L40,9.1z"/>
		<path class="st1" d="M54.2,4.8h16.6v0.1c-1.5,1.5-2.9,2.2-4.2,2.2H61c-0.8,0-1.2,0.3-1.4,1l-0.3,1.1h8.6v0.1
			c-1.7,1.6-3,2.4-4.1,2.4h-5.3c-0.3,0.7-0.4,1.2-0.4,1.4V13c0,0.4,0.2,0.5,0.6,0.5h5.8c1.7,0,2.9,0.7,3.8,2.2v0.1H57.4
			c-2.5,0-4-0.5-4.5-1.6l-0.1-0.4c1.3-4.6,2-7.1,2-7.7c0-0.5-0.2-1-0.7-1.3V4.8z"/>
		<path class="st1" d="M70.1,4.8h16.6v0.1c-1.5,1.5-2.9,2.2-4.2,2.2H77c-0.8,0-1.2,0.3-1.4,1l-0.3,1.1h8.6v0.1
			c-1.7,1.6-3,2.4-4.1,2.4h-5.3c-0.3,0.7-0.4,1.2-0.4,1.4V13c0,0.4,0.2,0.5,0.6,0.5h5.8c1.7,0,2.9,0.7,3.8,2.2v0.1H73.4
			c-2.5,0-4-0.5-4.5-1.6l-0.1-0.4c1.3-4.6,2-7.1,2-7.7c0-0.5-0.2-1-0.7-1.3V4.8z"/>
		<path class="st1" d="M87.1,4.8h17.8c1.1,0,1.6,0.5,1.6,1.5v0.1c0,0.4-0.7,2.9-2.2,7.6c-0.9,1.3-3,1.9-6.4,1.9H84.2v-0.1
			c1.4-0.9,2-1.8,2-2.8c0.6-1.7,1.2-3.9,1.9-6.6c0-0.6-0.4-1.1-1.1-1.5V4.8z M91.2,13.3h7.9c0.4,0,0.8-0.8,1.1-2.4
			c0.1-0.1,0.4-1.3,1.1-3.6h-7.8c-0.4,0-0.7,0.5-0.9,1.6C92.5,8.9,92,10.4,91.2,13.3z"/>
	</g>
</g>
</svg>
