<?xml version="1.0" encoding="utf-8"?>
<!-- Generator: Adobe Illustrator 25.0.0, SVG Export Plug-In . SVG Version: 6.00 Build 0)  -->
<svg version="1.1" id="CONTAINER" xmlns="http://www.w3.org/2000/svg" xmlns:xlink="http://www.w3.org/1999/xlink" x="0px" y="0px"
	 viewBox="0 0 177 59" style="enable-background:new 0 0 177 59;" xml:space="preserve">
<style type="text/css">
	.st0{enable-background:new    ;}
	.st1{fill:#FFF57B;}
	.st2{fill:url(#SVGID_1_);}
	.st3{fill:url(#SVGID_2_);}
	.st4{fill:url(#SVGID_3_);}
	.st5{fill:#FFFFFF;}
	.st6{fill:url(#SVGID_4_);}
</style>
<g id="Vert-Logo" transform="translate(166.000000, 276.000000)">
	<g class="st0">
		<path class="st1" d="M-153.8-219.7c-0.4,0-0.6-0.1-0.8-0.2c-0.2-0.2-0.4-0.3-0.4-0.5v-10.8c0-0.2,0.1-0.4,0.3-0.4
			c0.2-0.2,0.4-0.3,0.8-0.3h8.2c0.4,0,0.6,0.1,0.8,0.2c0.2,0.1,0.3,0.3,0.3,0.4v0.2c0,0.2-0.1,0.4-0.4,0.5c-0.3,0.1-0.4,0.2-0.7,0.2
			h-6.7v3.7h6.1c0.3,0,0.4,0.1,0.7,0.2s0.4,0.3,0.4,0.5v0.2c0,0.2-0.1,0.4-0.3,0.4s-0.4,0.2-0.8,0.2h-6.1v3.9h6.8
			c0.4,0,0.6,0.1,0.8,0.2c0.2,0.1,0.3,0.3,0.3,0.4v0.2c0,0.2-0.1,0.4-0.4,0.5c-0.3,0.1-0.4,0.2-0.7,0.2
			C-145.6-219.7-153.8-219.7-153.8-219.7z"/>
		<path class="st1" d="M-131.1-219.7c-0.2,0-0.4,0-0.5-0.1c-0.2-0.1-0.4-0.2-0.6-0.3l-4.2-4.6l-4.2,4.6c-0.2,0.2-0.4,0.3-0.6,0.3
			c-0.2,0.1-0.4,0.1-0.5,0.1h-0.4c-0.5,0-0.8-0.1-1-0.4c-0.1-0.3-0.1-0.4,0.1-0.6l5.1-5.4l-4.7-4.8c-0.2-0.2-0.2-0.4-0.1-0.6
			c0.1-0.3,0.4-0.4,1.1-0.4h0.4c0.4,0,0.9,0.2,1.2,0.4l3.8,3.9l3.9-3.9c0.1-0.1,0.3-0.2,0.4-0.3s0.4-0.2,0.6-0.2h0.4
			c0.6,0,1,0.1,1,0.4s0,0.4-0.2,0.6l-4.7,4.8l5.2,5.5c0,0.1,0,0.2,0,0.3s0,0.2-0.1,0.3s-0.2,0.2-0.3,0.3c-0.2,0.1-0.4,0.1-0.6,0.1
			C-130.6-219.7-131.1-219.7-131.1-219.7z"/>
		<path class="st1" d="M-125.5-224v3.6c0,0.2-0.1,0.3-0.3,0.4c-0.2,0.2-0.4,0.3-0.8,0.3h-0.4c-0.4,0-0.6-0.1-0.8-0.2
			c-0.2-0.1-0.3-0.3-0.3-0.4v-10.9c0-0.2,0.1-0.4,0.3-0.4c0.2-0.2,0.4-0.2,0.8-0.2h6.2c1.4,0,2.6,0.3,3.3,0.8
			c0.8,0.5,1.2,1.2,1.2,2.1v2.1c0,0.8-0.4,1.5-1.2,2.1c-0.7,0.4-1.8,0.7-3.2,0.7H-125.5z M-118.8-229c0-0.9-0.6-1.3-2-1.3h-4.8v4.8
			h4.7c0.6,0,1.1-0.1,1.4-0.3c0.4-0.2,0.5-0.5,0.5-1.1L-118.8-229L-118.8-229z"/>
		<path class="st1" d="M-112.9-219.7c-0.4,0-0.6-0.1-0.8-0.2c-0.2-0.2-0.3-0.3-0.3-0.5v-10.8c0-0.2,0.1-0.4,0.3-0.4
			c0.2-0.2,0.4-0.3,0.8-0.3h0.4c0.4,0,0.7,0.1,0.9,0.3c0.2,0.2,0.3,0.4,0.3,0.4v9.9h7.1c0.4,0,0.6,0.1,0.8,0.3
			c0.2,0.2,0.3,0.3,0.3,0.4v0.2c0,0.2-0.1,0.4-0.3,0.4c-0.2,0.1-0.4,0.2-0.7,0.2L-112.9-219.7C-112.9-219.8-112.9-219.7-112.9-219.7
			z"/>
		<path class="st1" d="M-97.2-219.7c-1.4,0-2.6-0.3-3.4-0.8s-1.2-1.2-1.2-2.1v-6.4c0-0.9,0.4-1.6,1.2-2.1c0.8-0.5,2-0.8,3.4-0.8h3.5
			c1.4,0,2.6,0.3,3.4,0.8c0.8,0.5,1.2,1.2,1.2,2.1v6.4c0,0.9-0.4,1.6-1.2,2.1c-0.8,0.5-2,0.8-3.4,0.8H-97.2z M-91.6-229
			c0-0.9-0.6-1.3-2-1.3h-3.5c-1.3,0-2,0.4-2,1.3v6.3c0,0.9,0.6,1.4,2,1.4h3.5c1.3,0,2-0.4,2-1.4C-91.6-222.6-91.6-229-91.6-229z"/>
		<path class="st1" d="M-76-219.7c-0.4,0-0.8-0.1-1.1-0.4l-3.2-4.3h-3.8v3.9c0,0.2-0.1,0.4-0.4,0.5c-0.3,0.1-0.5,0.2-0.8,0.2h-0.3
			c-0.3,0-0.5-0.1-0.8-0.2c-0.3-0.1-0.4-0.3-0.4-0.5v-10.8c0-0.2,0.1-0.4,0.4-0.5c0.3-0.1,0.5-0.2,0.8-0.2h6.2
			c1.4,0,2.6,0.3,3.4,0.8c0.8,0.5,1.2,1.2,1.2,2.1v1.7c0,1.3-1,2.3-2.9,2.7l3,4c0.1,0.1,0.2,0.3,0.1,0.5c0,0.3-0.4,0.4-1,0.4
			L-76-219.7L-76-219.7z M-77.4-229c0-0.9-0.7-1.4-2.1-1.4h-4.6v4.5h4.6c1.3,0,2.1-0.4,2.1-1.3V-229z"/>
		<path class="st1" d="M-71.1-219.7c-0.4,0-0.6-0.1-0.8-0.2s-0.3-0.3-0.3-0.4v-10.9c0-0.2,0.1-0.4,0.3-0.4c0.2-0.2,0.4-0.3,0.8-0.3
			h8.2c0.4,0,0.6,0.1,0.8,0.2c0.2,0.1,0.3,0.3,0.3,0.4v0.2c0,0.2-0.1,0.4-0.4,0.5c-0.3,0.1-0.4,0.2-0.7,0.2h-6.8v3.7h6.1
			c0.3,0,0.4,0.1,0.7,0.2c0.3,0.1,0.4,0.3,0.4,0.5v0.2c0,0.2-0.1,0.4-0.3,0.4s-0.4,0.2-0.8,0.2h-6.1v3.9h6.8c0.4,0,0.6,0.1,0.8,0.2
			c0.2,0.1,0.3,0.3,0.3,0.4v0.2c0,0.2-0.1,0.4-0.4,0.5c-0.3,0.1-0.4,0.2-0.7,0.2C-62.9-219.7-71.1-219.7-71.1-219.7z"/>
		<path class="st1" d="M-48.8-219.7c-0.4,0-0.8-0.1-1.1-0.4l-3.2-4.3h-3.7v3.9c0,0.2-0.1,0.4-0.4,0.5c-0.3,0.1-0.5,0.2-0.8,0.2h-0.3
			c-0.3,0-0.5-0.1-0.8-0.2c-0.3-0.1-0.4-0.3-0.4-0.5v-10.8c0-0.2,0.1-0.4,0.4-0.5c0.3-0.1,0.5-0.2,0.8-0.2h6.2
			c1.4,0,2.6,0.3,3.4,0.8c0.8,0.5,1.2,1.2,1.2,2.1v1.7c0,1.3-1,2.3-2.9,2.7l3,4c0.1,0.1,0.2,0.3,0.1,0.5c0,0.3-0.4,0.4-1,0.4
			L-48.8-219.7L-48.8-219.7z M-50.1-229c0-0.9-0.7-1.4-2.1-1.4h-4.6v4.5h4.6c1.3,0,2.1-0.4,2.1-1.3C-50.1-227.3-50.1-229-50.1-229z"
			/>
	</g>
	<g transform="translate(-125.231 -18)">
		<g transform="translate(175.537 20)">
			<g transform="translate(0 0)">
				<linearGradient id="SVGID_1_" gradientUnits="userSpaceOnUse" x1="-45.7174" y1="-232.6988" x2="-168.3329" y2="-271.251">
					<stop  offset="1.118836e-07" style="stop-color:#DBE900"/>
					<stop  offset="1" style="stop-color:#00BF2C"/>
				</linearGradient>
				<path class="st2" d="M-112.4-242.1c-6.4,0.6-11.7,0.9-15.9,0.9c-2.2,0.2-4.5-0.5-6.2-2c-1.5-1.7-2.2-3.9-2-6.2v-13.8
					c-0.2-2.4,0.5-4.7,2-6.6c1.8-1.5,4.2-2.3,6.6-2h15.5v6h-13.8c-1.2-0.2-2.4,0.7-2.6,1.9c0,0.2,0,0.4,0,0.6v13.8
					c0,0.6,0.2,1.1,0.6,1.6c0.4,0.4,0.9,0.6,1.5,0.6s1.3,0,2,0s1.5,0,2.2-0.1l2.3-0.1c0.8,0,1.8-0.1,3.1-0.2
					c1.2-0.1,2.8-0.2,4.7-0.3V-242.1z"/>
				<linearGradient id="SVGID_2_" gradientUnits="userSpaceOnUse" x1="-43.0095" y1="-241.3112" x2="-165.625" y2="-279.8635">
					<stop  offset="1.118836e-07" style="stop-color:#DBE900"/>
					<stop  offset="1" style="stop-color:#00BF2C"/>
				</linearGradient>
				<path class="st3" d="M-79.7-242.3c-6.1,0.7-12.3,1-18.5,1.1c-2.2,0.2-4.5-0.5-6.2-2c-1.5-1.7-2.2-3.9-2-6.2v-13.8
					c-0.2-2.4,0.5-4.7,2-6.6c1.8-1.5,4.2-2.3,6.6-2h15.5v6H-96c-1.2-0.2-2.4,0.7-2.6,1.9c0,0.2,0,0.4,0,0.7v13.8
					c-0.1,1.1,0.7,2.1,1.8,2.1c0.1,0,0.2,0,0.3,0c3.3,0,6.3-0.1,9-0.2v-6.2H-93v-5.2h13.3V-242.3z"/>
				<linearGradient id="SVGID_3_" gradientUnits="userSpaceOnUse" x1="-40.5989" y1="-248.9779" x2="-163.2145" y2="-287.5302">
					<stop  offset="1.118836e-07" style="stop-color:#DBE900"/>
					<stop  offset="1" style="stop-color:#00BF2C"/>
				</linearGradient>
				<path class="st4" d="M-66.6-241.6H-75l11.4-30.1h8.6l11.4,30.1H-52l-1.9-5.4h-10.8L-66.6-241.6z M-62.7-252.6h6.9l-3.4-10.1
					L-62.7-252.6z"/>
			</g>
		</g>
		<g transform="translate(125.231 18)">
			<g transform="translate(0)">
				<path class="st5" d="M-112.2-236.9c-1,0-2-0.4-2.7-1.1l-7.4-7.4l-7.6,7.6c-0.9,0.9-2.3,0.9-3.2,0l0,0c-0.9-0.9-0.9-2.3,0-3.2
					l0,0l8-8c1.5-1.5,4-1.5,5.5,0l7.4,7.4l13.3-13.3l-13.3-13.3l-30.1,30.1c-1.5,1.5-4,1.5-5.5,0l-14.1-14.1c-1.5-1.5-1.5-4,0-5.5
					l14.1-14.1c1.5-1.5,4-1.5,5.5,0l7.4,7.4l7.7-7.7c0.9-0.9,2.3-0.9,3.2,0l0,0c0.9,0.9,0.9,2.3,0,3.2l0,0l-8.1,8.1
					c-1.5,1.5-4,1.5-5.5,0l-7.4-7.4l-13.3,13.3l13.3,13.3l30.1-30.1c1.5-1.5,4-1.5,5.5,0l14.1,14.1c1.5,1.5,1.5,4,0,5.5l-14.1,14.1
					C-110.2-237.3-111.2-236.9-112.2-236.9z"/>
			</g>
			<g transform="translate(34.818 10.293)">
				<path class="st5" d="M-142.4-262.9c-0.6,0-1.2-0.2-1.6-0.7c-0.4-0.4-0.7-1-0.7-1.6s0.2-1.2,0.7-1.6c0.4-0.4,1-0.7,1.6-0.7
					s1.2,0.2,1.6,0.7c0.4,0.4,0.7,1,0.7,1.6s-0.2,1.2-0.7,1.6C-141.2-263.1-141.8-262.9-142.4-262.9z"/>
			</g>
			<g transform="translate(28.725 10.293)">
				<path class="st5" d="M-145.6-262.9c-0.6,0-1.2-0.2-1.6-0.7c-0.4-0.4-0.7-1-0.7-1.6s0.2-1.2,0.7-1.6c0.4-0.4,1-0.7,1.6-0.7
					s1.2,0.2,1.6,0.7c0.4,0.4,0.7,1,0.7,1.6s-0.2,1.2-0.7,1.6C-144.4-263.1-145-262.9-145.6-262.9z"/>
			</g>
			<g transform="translate(31.771 7.247)">
				<path class="st5" d="M-144-264.5c-0.6,0-1.2-0.2-1.6-0.7c-0.4-0.4-0.7-1-0.7-1.6s0.2-1.2,0.7-1.6c0.4-0.4,1-0.7,1.6-0.7
					s1.2,0.2,1.6,0.7c0.4,0.4,0.7,1,0.7,1.6s-0.2,1.2-0.7,1.6C-142.8-264.7-143.4-264.5-144-264.5z"/>
			</g>
			<g transform="translate(31.771 13.341)">
				<path class="st5" d="M-144-261.3c-0.6,0-1.2-0.2-1.6-0.7c-0.4-0.4-0.7-1-0.7-1.6s0.2-1.2,0.7-1.6c0.4-0.4,1-0.7,1.6-0.7
					s1.2,0.2,1.6,0.7c0.4,0.4,0.7,1,0.7,1.6s-0.2,1.2-0.7,1.6C-142.8-261.5-143.4-261.3-144-261.3z"/>
			</g>
			<path class="st5" d="M-141-257.1h-2.4v-2.4c0-1.2-1-2.2-2.2-2.2s-2.2,1-2.2,2.2v2.4h-2.4c-1.2,0-2.2,1-2.2,2.2s1,2.2,2.2,2.2h2.4
				v2.4c0,1.2,1,2.2,2.2,2.2s2.2-1,2.2-2.2v-2.4h2.4c1.2,0,2.2-1,2.2-2.2S-139.8-257.1-141-257.1z"/>
		</g>
	</g>
	<g>
		<linearGradient id="SVGID_4_" gradientUnits="userSpaceOnUse" x1="-29.5138" y1="-238.0328" x2="-3.2305" y2="-203.6475">
			<stop  offset="1.118836e-07" style="stop-color:#DBE900"/>
			<stop  offset="1" style="stop-color:#00BF2C"/>
		</linearGradient>
		<path class="st6" d="M-0.1-220.7h-39.8c-1.5,0-2.8-1.3-2.8-2.8v-4.1c0-1.5,1.3-2.8,2.8-2.8h39.8c1.5,0,2.8,1.3,2.8,2.8v4.1
			C2.7-221.9,1.5-220.7-0.1-220.7z"/>
		<g>
			<path d="M-40.5-228.7h2.9c0.6,0,1.1,0.2,1.4,0.5c0.2,0.3,0.4,0.6,0.4,1c0,0.4-0.1,0.7-0.3,0.9c-0.1,0.1-0.2,0.2-0.4,0.3v0
				c0.3,0.1,0.6,0.3,0.7,0.6c0.1,0.2,0.2,0.5,0.2,0.8c0,0.2,0,0.5-0.1,0.7c-0.1,0.2-0.2,0.4-0.4,0.5c-0.2,0.2-0.4,0.3-0.6,0.4
				c-0.3,0.1-0.7,0.1-1.2,0.1h-2.5V-228.7z M-39.3-226.4h1.5c0.2,0,0.4-0.1,0.6-0.2c0.2-0.1,0.2-0.3,0.2-0.5c0-0.2-0.1-0.4-0.2-0.5
				c-0.1-0.1-0.3-0.1-0.6-0.1h-1.5V-226.4z M-39.3-223.8h1.5c0.3,0,0.5-0.1,0.7-0.2c0.2-0.1,0.2-0.4,0.2-0.7c0-0.2-0.1-0.4-0.3-0.5
				c-0.1-0.1-0.3-0.2-0.6-0.2h-1.6V-223.8z"/>
			<path d="M-30.2-227.7h-3v1.2h2.8v1h-2.8v1.5h3.1v1h-4.3v-5.9h4.2V-227.7z"/>
			<path d="M-26.4-222.8h-1.2v-4.8h-1.8v-1h4.7v1h-1.8V-222.8z"/>
			<path d="M-22.7-222.8H-24l2.1-5.9h1.4l2,5.9h-1.3l-0.4-1.2h-2.2L-22.7-222.8z M-22-225.1h1.5l-0.7-2.3h0L-22-225.1z"/>
			<path d="M-11.4-228.7h1.1v5.9h-1.2l-2.3-4.2h0v4.2H-15v-5.9h1.3l2.3,4.1h0V-228.7z"/>
			<path d="M-4.7-227.7h-3v1.2H-5v1h-2.8v1.5h3.1v1h-4.3v-5.9h4.2V-227.7z"/>
			<path d="M-0.9-222.8h-1.2v-4.8h-1.8v-1h4.7v1h-1.8V-222.8z"/>
		</g>
	</g>
</g>
</svg>
