<?xml version="1.0" encoding="utf-8"?>
<!-- Generator: Adobe Illustrator 23.0.2, SVG Export Plug-In . SVG Version: 6.00 Build 0)  -->
<svg version="1.1" id="레이어_1" xmlns="http://www.w3.org/2000/svg" xmlns:xlink="http://www.w3.org/1999/xlink" x="0px"
	 y="0px" viewBox="0 0 177 59" style="enable-background:new 0 0 177 59;" xml:space="preserve">
<style type="text/css">
	.st0{enable-background:new    ;}
	.st1{fill:#FFFFFF;}
	.st2{fill:#0092FF;}
</style>
<title>Vert Logo</title>
<desc>Created with Sketch.</desc>
<g id="Page-1">
	<g id="NanoCrawler" transform="translate(-167.000000, -285.000000)">
		<g id="Vert-Logo" transform="translate(166.000000, 276.000000)">
			<g class="st0">
				<path class="st1" d="M12,62.9c-0.4,0-0.6-0.1-0.8-0.2c-0.2-0.1-0.3-0.3-0.3-0.5V51c0-0.2,0.1-0.3,0.3-0.5
					c0.2-0.2,0.5-0.2,0.9-0.2h8.5c0.4,0,0.6,0.1,0.8,0.2c0.2,0.1,0.3,0.3,0.3,0.5v0.2c0,0.2-0.1,0.4-0.4,0.5
					c-0.2,0.1-0.5,0.2-0.7,0.2h-7v3.8h6.3c0.2,0,0.5,0.1,0.7,0.2c0.2,0.1,0.4,0.3,0.4,0.5v0.2c0,0.2-0.1,0.4-0.3,0.5
					c-0.2,0.1-0.5,0.2-0.8,0.2h-6.3v4h7c0.4,0,0.6,0.1,0.8,0.2c0.2,0.1,0.3,0.3,0.3,0.5v0.2c0,0.2-0.1,0.4-0.4,0.5
					c-0.2,0.1-0.5,0.2-0.7,0.2H12z"/>
				<path class="st1" d="M42.2,62.9c-0.1,0-0.3,0-0.6-0.1c-0.2-0.1-0.4-0.2-0.6-0.3l-4.4-4.8l-4.4,4.8c-0.2,0.1-0.4,0.2-0.6,0.3
					c-0.2,0.1-0.4,0.1-0.6,0.1h-0.5c-0.5,0-0.9-0.1-1-0.4c-0.1-0.2-0.1-0.5,0.1-0.6l5.3-5.7l-4.9-5c-0.1-0.2-0.2-0.4-0.1-0.6
					s0.4-0.4,1.1-0.4h0.4c0.5,0,0.9,0.2,1.2,0.5l4,4l4-4c0.1-0.1,0.2-0.2,0.4-0.3c0.2-0.1,0.4-0.2,0.7-0.2h0.5c0.7,0,1,0.1,1.1,0.4
					c0,0.3,0,0.5-0.2,0.6l-4.9,5l5.4,5.8c0,0.1,0,0.1,0,0.2c0,0.1,0,0.2-0.1,0.3c-0.1,0.1-0.2,0.2-0.3,0.3c-0.1,0.1-0.4,0.1-0.7,0.1
					H42.2z"/>
				<path class="st1" d="M54.4,58.5v3.8c0,0.1-0.1,0.3-0.3,0.5c-0.2,0.2-0.5,0.2-0.9,0.2h-0.4c-0.4,0-0.7-0.1-0.9-0.2
					c-0.2-0.1-0.3-0.3-0.3-0.5V51c0-0.2,0.1-0.4,0.3-0.5c0.2-0.1,0.5-0.2,0.9-0.2h6.5c1.5,0,2.6,0.3,3.5,0.8
					c0.8,0.6,1.2,1.3,1.2,2.2v2.2c0,0.9-0.4,1.6-1.2,2.2c-0.8,0.6-2,0.8-3.5,0.8H54.4z M61.4,53.3c0-0.9-0.7-1.4-2.1-1.4h-4.9v5h4.9
					c0.6,0,1.1-0.1,1.5-0.3s0.6-0.6,0.6-1.1V53.3z"/>
				<path class="st1" d="M74,62.9c-0.4,0-0.6-0.1-0.9-0.2c-0.2-0.1-0.3-0.3-0.3-0.5V51c0-0.2,0.1-0.3,0.3-0.5
					c0.2-0.2,0.5-0.2,0.9-0.2h0.4c0.5,0,0.8,0.1,0.9,0.3c0.2,0.2,0.2,0.3,0.2,0.5v10.3h7.3c0.4,0,0.6,0.1,0.8,0.2
					c0.2,0.2,0.3,0.3,0.3,0.5v0.3c0,0.2-0.1,0.4-0.3,0.5c-0.2,0.1-0.5,0.2-0.8,0.2H74z"/>
				<path class="st1" d="M96.8,62.9c-1.5,0-2.7-0.3-3.5-0.8c-0.8-0.5-1.3-1.3-1.3-2.2v-6.7c0-0.9,0.4-1.6,1.3-2.2
					c0.8-0.6,2-0.8,3.5-0.8h3.6c1.5,0,2.7,0.3,3.5,0.8c0.9,0.6,1.3,1.3,1.3,2.2v6.7c0,0.9-0.4,1.7-1.3,2.2s-2,0.8-3.5,0.8H96.8z
					 M102.5,53.3c0-0.9-0.7-1.4-2.1-1.4h-3.6c-1.4,0-2.1,0.5-2.1,1.4v6.6c0,1,0.7,1.4,2.1,1.4h3.6c1.4,0,2.1-0.5,2.1-1.4V53.3z"/>
				<path class="st1" d="M125.2,62.9c-0.5,0-0.9-0.1-1.1-0.4l-3.3-4.5h-4v4.2c0,0.2-0.1,0.4-0.4,0.5c-0.3,0.1-0.5,0.2-0.8,0.2h-0.3
					c-0.2,0-0.5,0-0.8-0.1c-0.3-0.1-0.4-0.3-0.4-0.5V51c0-0.2,0.1-0.4,0.4-0.5c0.2-0.1,0.5-0.2,0.9-0.2h6.4c1.5,0,2.7,0.3,3.5,0.8
					c0.9,0.5,1.3,1.3,1.3,2.2V55c0,1.4-1,2.4-2.9,2.8l3.2,4.1c0.1,0.1,0.1,0.3,0.1,0.6s-0.4,0.4-1,0.4H125.2z M123.8,53.3
					c0-1-0.7-1.4-2.1-1.4h-4.8v4.6h4.8c1.4,0,2.1-0.5,2.1-1.4V53.3z"/>
				<path class="st1" d="M136.8,62.9c-0.4,0-0.6-0.1-0.8-0.2c-0.2-0.1-0.3-0.3-0.3-0.5V51c0-0.2,0.1-0.3,0.3-0.5
					c0.2-0.2,0.5-0.2,0.9-0.2h8.5c0.4,0,0.6,0.1,0.8,0.2c0.2,0.1,0.3,0.3,0.3,0.5v0.2c0,0.2-0.1,0.4-0.4,0.5
					c-0.2,0.1-0.5,0.2-0.7,0.2h-7v3.8h6.3c0.2,0,0.5,0.1,0.7,0.2c0.2,0.1,0.4,0.3,0.4,0.5v0.2c0,0.2-0.1,0.4-0.3,0.5
					c-0.2,0.1-0.5,0.2-0.8,0.2h-6.3v4h7c0.4,0,0.6,0.1,0.8,0.2c0.2,0.1,0.3,0.3,0.3,0.5v0.2c0,0.2-0.1,0.4-0.4,0.5
					c-0.2,0.1-0.5,0.2-0.7,0.2H136.8z"/>
				<path class="st1" d="M166.5,62.9c-0.5,0-0.9-0.1-1.1-0.4l-3.3-4.5h-4v4.2c0,0.2-0.1,0.4-0.4,0.5c-0.3,0.1-0.5,0.2-0.8,0.2h-0.3
					c-0.2,0-0.5,0-0.8-0.1c-0.3-0.1-0.4-0.3-0.4-0.5V51c0-0.2,0.1-0.4,0.4-0.5c0.2-0.1,0.5-0.2,0.9-0.2h6.4c1.5,0,2.7,0.3,3.5,0.8
					c0.9,0.5,1.3,1.3,1.3,2.2V55c0,1.4-1,2.4-2.9,2.8L168,62c0.1,0.1,0.1,0.3,0.1,0.6s-0.4,0.4-1,0.4H166.5z M165.1,53.3
					c0-1-0.7-1.4-2.1-1.4h-4.8v4.6h4.8c1.4,0,2.1-0.5,2.1-1.4V53.3z"/>
			</g>
			<g>
				<g>
					<path class="st2" d="M13,14.4h11.9c5.3,3.5,8.2,5.5,8.7,5.9c5.8-3.9,9-5.9,9.5-5.9h17v0.3C51.3,20,45.4,23.8,42.2,26
						c3.2,1.4,8.6,5.6,16.5,12.7c3.8,4.2,5.8,6.5,5.8,6.9h-0.1C51.8,38.1,42.5,33.3,36.4,31C30.3,33.5,21,38.4,8.7,45.5v-0.1
						c2.1-4,5.9-8.9,11.5-15c0.1,0,1.3-1.1,3.7-3.3l4.1-3.2l-15-9.3V14.4z"/>
				</g>
				<g>
					<path class="st1" d="M61.1,14.9h25c1.6,0,2.9,0.8,3.9,2.5c0.1,0.6,0.2,1.1,0.2,1.4c0,1.3-0.5,2.7-1.5,4.2
						c-1.7,1.6-4.8,2.3-9.3,2.3H68c-0.1,0-0.7,1.7-1.6,5c-0.3,1-0.5,1.5-0.7,1.7h-7.4L58.1,32c1.7-5.1,3.1-9.9,4.4-14.3v-0.6
						C62.5,16.5,62,15.8,61.1,14.9L61.1,14.9z M69.2,21.6h12.5c0.4-1.3,0.6-2.1,0.6-2.2v-0.3c0-0.4-0.2-0.7-0.6-0.7h-9.8
						c-1.2,0-1.9,0.5-2.2,1.5L69.2,21.6z"/>
					<path class="st1" d="M91.1,14.9h25.6V15c-2.3,2.3-4.5,3.5-6.5,3.5h-8.5c-1.2,0-1.9,0.5-2.2,1.5L99,21.6h13.4v0.1
						c-2.6,2.4-4.7,3.6-6.3,3.6h-8.1c-0.5,1.1-0.7,1.8-0.7,2.1v0.1c0.1,0.6,0.4,0.8,0.9,0.8h8.9c2.6,0,4.5,1.2,5.9,3.5v0.2H96.1
						c-3.9,0-6.2-0.8-7-2.5L89,28.9c2-7.1,3.1-11,3.2-11.9c0-0.8-0.4-1.5-1.1-2V14.9z"/>
					<path class="st1" d="M115.8,14.9h25.6V15c-2.3,2.3-4.5,3.5-6.5,3.5h-8.5c-1.2,0-1.9,0.5-2.2,1.5l-0.5,1.7H137v0.1
						c-2.6,2.4-4.7,3.6-6.3,3.6h-8.1c-0.5,1.1-0.7,1.8-0.7,2.1v0.1c0.1,0.6,0.4,0.8,0.9,0.8h8.9c2.6,0,4.5,1.2,5.9,3.5v0.2h-16.8
						c-3.9,0-6.2-0.8-7-2.5l-0.1-0.7c2-7.1,3.1-11,3.2-11.9c0-0.8-0.4-1.5-1.1-2V14.9z"/>
					<path class="st1" d="M142,14.9h27.5c1.7,0,2.5,0.8,2.5,2.3v0.1c0,0.6-1.1,4.5-3.4,11.8c-1.4,2-4.7,3-9.9,3h-21.3V32
						c2.1-1.4,3.2-2.9,3.2-4.3c0.9-2.6,1.9-6.1,3-10.3c0-0.9-0.5-1.6-1.6-2.3V14.9z M148.4,28h12.2c0.6,0,1.2-1.2,1.7-3.7
						c0.1-0.2,0.7-2,1.6-5.5h-12.1c-0.6,0-1.1,0.8-1.4,2.5C150.4,21.3,149.7,23.6,148.4,28z"/>
				</g>
			</g>
		</g>
	</g>
</g>
</svg>
