<?xml version="1.0" encoding="utf-8"?>
<!-- Generator: Adobe Illustrator 23.0.2, SVG Export Plug-In . SVG Version: 6.00 Build 0)  -->
<svg version="1.1" id="CONTAINER" xmlns="http://www.w3.org/2000/svg" xmlns:xlink="http://www.w3.org/1999/xlink" x="0px" y="0px"
	 viewBox="0 0 177 59" style="enable-background:new 0 0 177 59;" xml:space="preserve">
<style type="text/css">
	.st0{enable-background:new    ;}
	.st1{fill:#FFFFFF;}
	.st2{fill:url(#SVGID_1_);}
	.st3{fill:url(#SVGID_2_);}
	.st4{fill:url(#SVGID_3_);}
	.st5{fill:url(#SVGID_4_);}
	.st6{fill:url(#SVGID_5_);}
	.st7{fill:url(#SVGID_6_);}
</style>
<g id="Vert-Logo" transform="translate(166.000000, 276.000000)">
	<g class="st0">
		<path class="st1" d="M-161.7-218.2c-0.4,0-0.7-0.1-0.9-0.2c-0.2-0.2-0.4-0.3-0.4-0.6v-12.1c0-0.2,0.1-0.4,0.3-0.5
			c0.2-0.2,0.5-0.3,0.9-0.3h9.2c0.4,0,0.7,0.1,0.9,0.2c0.2,0.1,0.3,0.3,0.3,0.5v0.2c0,0.2-0.1,0.4-0.4,0.6c-0.3,0.1-0.5,0.2-0.8,0.2
			h-7.5v4.2h6.8c0.3,0,0.5,0.1,0.8,0.2c0.3,0.1,0.4,0.3,0.4,0.6v0.2c0,0.2-0.1,0.4-0.3,0.5c-0.2,0.1-0.5,0.2-0.9,0.2h-6.8v4.4h7.6
			c0.4,0,0.7,0.1,0.9,0.2c0.2,0.1,0.3,0.3,0.3,0.5v0.2c0,0.2-0.1,0.4-0.4,0.6c-0.3,0.1-0.5,0.2-0.8,0.2
			C-152.5-218.2-161.7-218.2-161.7-218.2z"/>
		<path class="st1" d="M-129.2-218.2c-0.2,0-0.4,0-0.6-0.1c-0.2-0.1-0.5-0.2-0.7-0.3l-4.7-5.2l-4.7,5.2c-0.2,0.2-0.4,0.3-0.7,0.3
			c-0.2,0.1-0.5,0.1-0.6,0.1h-0.5c-0.6,0-0.9-0.1-1.1-0.4c-0.1-0.3-0.1-0.5,0.1-0.7l5.7-6.1l-5.3-5.4c-0.2-0.2-0.2-0.4-0.1-0.7
			c0.1-0.3,0.5-0.4,1.2-0.4h0.5c0.5,0,1,0.2,1.3,0.5l4.3,4.4l4.4-4.4c0.1-0.1,0.3-0.2,0.5-0.3s0.4-0.2,0.7-0.2h0.5
			c0.7,0,1.1,0.1,1.1,0.4s0,0.5-0.2,0.7l-5.3,5.4l5.8,6.2c0,0.1,0,0.2,0,0.3s0,0.2-0.1,0.3c-0.1,0.1-0.2,0.2-0.3,0.3
			c-0.2,0.1-0.4,0.1-0.7,0.1C-128.7-218.2-129.2-218.2-129.2-218.2z"/>
		<path class="st1" d="M-116-223v4c0,0.2-0.1,0.3-0.3,0.5c-0.2,0.2-0.5,0.3-0.9,0.3h-0.5c-0.4,0-0.7-0.1-0.9-0.2
			c-0.2-0.1-0.3-0.3-0.3-0.5v-12.2c0-0.2,0.1-0.4,0.3-0.5c0.2-0.2,0.5-0.2,0.9-0.2h7c1.6,0,2.9,0.3,3.7,0.9c0.9,0.6,1.3,1.4,1.3,2.4
			v2.4c0,0.9-0.4,1.7-1.3,2.3c-0.8,0.5-2,0.8-3.6,0.8H-116z M-108.4-228.6c0-1-0.7-1.5-2.2-1.5h-5.4v5.4h5.3c0.7,0,1.2-0.1,1.6-0.3
			c0.4-0.2,0.6-0.6,0.6-1.2L-108.4-228.6L-108.4-228.6z"/>
		<path class="st1" d="M-94.8-218.2c-0.4,0-0.7-0.1-0.9-0.2c-0.2-0.2-0.3-0.3-0.3-0.6v-12.1c0-0.2,0.1-0.4,0.3-0.5
			c0.2-0.2,0.5-0.3,0.9-0.3h0.4c0.5,0,0.8,0.1,1,0.3c0.2,0.2,0.3,0.4,0.3,0.5v11.1h7.9c0.4,0,0.7,0.1,0.9,0.3
			c0.2,0.2,0.3,0.3,0.3,0.5v0.2c0,0.2-0.1,0.4-0.3,0.5c-0.2,0.1-0.5,0.2-0.8,0.2h-9.7V-218.2z"/>
		<path class="st1" d="M-70.2-218.2c-1.6,0-2.9-0.3-3.8-0.9c-0.9-0.6-1.4-1.4-1.4-2.4v-7.2c0-1,0.5-1.8,1.4-2.4
			c0.9-0.6,2.2-0.9,3.8-0.9h3.9c1.6,0,2.9,0.3,3.8,0.9s1.4,1.4,1.4,2.4v7.2c0,1-0.5,1.8-1.4,2.4c-0.9,0.6-2.2,0.9-3.8,0.9H-70.2z
			 M-64-228.6c0-1-0.7-1.5-2.2-1.5h-3.9c-1.5,0-2.2,0.5-2.2,1.5v7.1c0,1,0.7,1.6,2.2,1.6h3.9c1.5,0,2.2-0.5,2.2-1.6V-228.6z"/>
		<path class="st1" d="M-39.5-218.2c-0.5,0-0.9-0.1-1.2-0.4l-3.6-4.8h-4.3v4.4c0,0.2-0.1,0.4-0.4,0.6c-0.3,0.1-0.6,0.2-0.9,0.2h-0.3
			c-0.3,0-0.6-0.1-0.9-0.2c-0.3-0.1-0.5-0.3-0.5-0.6v-12.1c0-0.2,0.1-0.4,0.4-0.6c0.3-0.1,0.6-0.2,0.9-0.2h6.9
			c1.6,0,2.9,0.3,3.8,0.9s1.4,1.4,1.4,2.4v1.9c0,1.5-1.1,2.6-3.2,3l3.4,4.5c0.1,0.1,0.2,0.3,0.1,0.6c0,0.3-0.4,0.4-1.1,0.4H-39.5z
			 M-41.1-228.6c0-1-0.8-1.6-2.3-1.6h-5.2v5h5.2c1.5,0,2.3-0.5,2.3-1.5V-228.6z"/>
		<path class="st1" d="M-27-218.2c-0.4,0-0.7-0.1-0.9-0.2s-0.3-0.3-0.3-0.5v-12.2c0-0.2,0.1-0.4,0.3-0.5c0.2-0.2,0.5-0.3,0.9-0.3
			h9.2c0.4,0,0.7,0.1,0.9,0.2c0.2,0.1,0.3,0.3,0.3,0.5v0.2c0,0.2-0.1,0.4-0.4,0.6c-0.3,0.1-0.5,0.2-0.8,0.2h-7.6v4.2h6.8
			c0.3,0,0.5,0.1,0.8,0.2c0.3,0.1,0.4,0.3,0.4,0.6v0.2c0,0.2-0.1,0.4-0.3,0.5s-0.5,0.2-0.9,0.2h-6.8v4.4h7.6c0.4,0,0.7,0.1,0.9,0.2
			c0.2,0.1,0.3,0.3,0.3,0.5v0.2c0,0.2-0.1,0.4-0.4,0.6c-0.3,0.1-0.5,0.2-0.8,0.2C-17.8-218.2-27-218.2-27-218.2z"/>
		<path class="st1" d="M5-218.2c-0.5,0-0.9-0.1-1.2-0.4l-3.6-4.8H-4v4.4c0,0.2-0.1,0.4-0.4,0.6c-0.3,0.1-0.6,0.2-0.9,0.2h-0.3
			c-0.3,0-0.6-0.1-0.9-0.2c-0.3-0.1-0.5-0.3-0.5-0.6v-12.1c0-0.2,0.1-0.4,0.4-0.6c0.3-0.1,0.6-0.2,0.9-0.2h6.9
			c1.6,0,2.9,0.3,3.8,0.9c0.9,0.6,1.4,1.4,1.4,2.4v1.9c0,1.5-1.1,2.6-3.2,3l3.4,4.5c0.1,0.1,0.2,0.3,0.1,0.6c0,0.3-0.4,0.4-1.1,0.4
			H5z M3.5-228.6c0-1-0.8-1.6-2.3-1.6H-4v5h5.2c1.5,0,2.3-0.5,2.3-1.5V-228.6z"/>
	</g>
	<g transform="translate(-125.231 -18)">
		<g transform="translate(175.537 20)">
			<g transform="translate(0 0)">
				<path class="st1" d="M-112.4-242.1c-6.4,0.6-11.7,0.9-15.9,0.9c-2.2,0.2-4.5-0.5-6.2-2c-1.5-1.7-2.2-3.9-2-6.2v-13.8
					c-0.2-2.4,0.5-4.7,2-6.6c1.8-1.5,4.2-2.3,6.6-2h15.5v6h-13.8c-1.2-0.2-2.4,0.7-2.6,1.9c0,0.2,0,0.4,0,0.6v13.8
					c0,0.6,0.2,1.1,0.6,1.6c0.4,0.4,0.9,0.6,1.5,0.6c0.6,0,1.3,0,2,0c0.7,0,1.5,0,2.2-0.1l2.3-0.1c0.8,0,1.8-0.1,3.1-0.2
					c1.2-0.1,2.8-0.2,4.7-0.3L-112.4-242.1z"/>
				<path class="st1" d="M-79.7-242.3c-6.1,0.7-12.3,1-18.5,1.1c-2.2,0.2-4.5-0.5-6.2-2c-1.5-1.7-2.2-3.9-2-6.2v-13.8
					c-0.2-2.4,0.5-4.7,2-6.6c1.8-1.5,4.2-2.3,6.6-2h15.5v6H-96c-1.2-0.2-2.4,0.7-2.6,1.9c0,0.2,0,0.4,0,0.7v13.8
					c-0.1,1.1,0.7,2.1,1.8,2.1c0.1,0,0.2,0,0.3,0c3.3,0,6.3-0.1,9-0.2v-6.2H-93v-5.2h13.3L-79.7-242.3z"/>
				<path class="st1" d="M-66.6-241.6H-75l11.4-30.1h8.6l11.4,30.1H-52l-1.9-5.4h-10.8L-66.6-241.6z M-62.7-252.6h6.9l-3.4-10.1
					L-62.7-252.6z"/>
			</g>
		</g>
		<g transform="translate(125.231 18)">
			<g transform="translate(0)">
				
					<linearGradient id="SVGID_1_" gradientUnits="userSpaceOnUse" x1="-745.406" y1="122.3064" x2="-746.7322" y2="121.68" gradientTransform="matrix(44.9858 0 0 -23.5098 33429.1953 2614.3433)">
					<stop  offset="0" style="stop-color:#04E4F5"/>
					<stop  offset="1" style="stop-color:#30FE9D"/>
				</linearGradient>
				<path class="st2" d="M-112.2-236.9c-1,0-2-0.4-2.7-1.1l-7.4-7.4l-7.6,7.6c-0.9,0.9-2.3,0.9-3.2,0c0,0,0,0,0,0
					c-0.9-0.9-0.9-2.3,0-3.2c0,0,0,0,0,0l8-8c1.5-1.5,4-1.5,5.5,0l7.4,7.4l13.3-13.3l-13.3-13.3l-30.1,30.1c-1.5,1.5-4,1.5-5.5,0
					l-14.1-14.1c-1.5-1.5-1.5-4,0-5.5l14.1-14.1c1.5-1.5,4-1.5,5.5,0l7.4,7.4l7.7-7.7c0.9-0.9,2.3-0.9,3.2,0c0,0,0,0,0,0
					c0.9,0.9,0.9,2.3,0,3.2c0,0,0,0,0,0l-8.1,8.1c-1.5,1.5-4,1.5-5.5,0l-7.4-7.4l-13.3,13.3l13.3,13.3l30.1-30.1
					c1.5-1.5,4-1.5,5.5,0l14.1,14.1c1.5,1.5,1.5,4,0,5.5l-14.1,14.1C-110.2-237.3-111.2-236.9-112.2-236.9z"/>
			</g>
			<g transform="translate(34.818 10.293)">
				
					<linearGradient id="SVGID_2_" gradientUnits="userSpaceOnUse" x1="-582.8235" y1="3.0166" x2="-584.1497" y2="2.3902" gradientTransform="matrix(2.921 0 0 -2.92 1561.6797 -257.0928)">
					<stop  offset="0" style="stop-color:#04E4F5"/>
					<stop  offset="1" style="stop-color:#30FE9D"/>
				</linearGradient>
				<path class="st3" d="M-142.4-262.9c-0.6,0-1.2-0.2-1.6-0.7c-0.4-0.4-0.7-1-0.7-1.6c0-0.6,0.2-1.2,0.7-1.6c0.4-0.4,1-0.7,1.6-0.7
					c0.6,0,1.2,0.2,1.6,0.7c0.4,0.4,0.7,1,0.7,1.6c0,0.6-0.2,1.2-0.7,1.6C-141.2-263.1-141.8-262.9-142.4-262.9z"/>
			</g>
			<g transform="translate(28.725 10.293)">
				
					<linearGradient id="SVGID_3_" gradientUnits="userSpaceOnUse" x1="-577.7563" y1="3.0166" x2="-579.0825" y2="2.3902" gradientTransform="matrix(2.92 0 0 -2.92 1543.0675 -257.0928)">
					<stop  offset="0" style="stop-color:#04E4F5"/>
					<stop  offset="1" style="stop-color:#30FE9D"/>
				</linearGradient>
				<path class="st4" d="M-145.6-262.9c-0.6,0-1.2-0.2-1.6-0.7c-0.4-0.4-0.7-1-0.7-1.6c0-0.6,0.2-1.2,0.7-1.6c0.4-0.4,1-0.7,1.6-0.7
					c0.6,0,1.2,0.2,1.6,0.7c0.4,0.4,0.7,1,0.7,1.6c0,0.6-0.2,1.2-0.7,1.6C-144.4-263.1-145-262.9-145.6-262.9z"/>
			</g>
			<g transform="translate(31.771 7.247)">
				
					<linearGradient id="SVGID_4_" gradientUnits="userSpaceOnUse" x1="-580.2525" y1="6.612" x2="-581.5787" y2="5.9856" gradientTransform="matrix(2.92 0 0 -2.92 1551.9578 -248.2025)">
					<stop  offset="0" style="stop-color:#04E4F5"/>
					<stop  offset="1" style="stop-color:#30FE9D"/>
				</linearGradient>
				<path class="st5" d="M-144-264.5c-0.6,0-1.2-0.2-1.6-0.7c-0.4-0.4-0.7-1-0.7-1.6c0-0.6,0.2-1.2,0.7-1.6c0.4-0.4,1-0.7,1.6-0.7
					c0.6,0,1.2,0.2,1.6,0.7c0.4,0.4,0.7,1,0.7,1.6c0,0.6-0.2,1.2-0.7,1.6C-142.8-264.7-143.4-264.5-144-264.5z"/>
			</g>
			<g transform="translate(31.771 13.341)">
				
					<linearGradient id="SVGID_5_" gradientUnits="userSpaceOnUse" x1="-580.2526" y1="-0.5828" x2="-581.5787" y2="-1.2092" gradientTransform="matrix(2.92 0 0 -2.92 1551.9578 -265.9949)">
					<stop  offset="0" style="stop-color:#04E4F5"/>
					<stop  offset="1" style="stop-color:#30FE9D"/>
				</linearGradient>
				<path class="st6" d="M-144-261.3c-0.6,0-1.2-0.2-1.6-0.7c-0.4-0.4-0.7-1-0.7-1.6c0-0.6,0.2-1.2,0.7-1.6c0.4-0.4,1-0.7,1.6-0.7
					c0.6,0,1.2,0.2,1.6,0.7c0.4,0.4,0.7,1,0.7,1.6c0,0.6-0.2,1.2-0.7,1.6C-142.8-261.5-143.4-261.3-144-261.3z"/>
			</g>
			
				<linearGradient id="SVGID_6_" gradientUnits="userSpaceOnUse" x1="-692.0305" y1="97.439" x2="-693.3566" y2="96.8126" gradientTransform="matrix(9.012 0 0 -9.012 6095.9448 620.8979)">
				<stop  offset="0" style="stop-color:#04E4F5"/>
				<stop  offset="1" style="stop-color:#30FE9D"/>
			</linearGradient>
			<path class="st7" d="M-141-257.1h-2.4v-2.4c0-1.2-1-2.2-2.2-2.2c-1.2,0-2.2,1-2.2,2.2v2.4h-2.4c-1.2,0-2.2,1-2.2,2.2
				s1,2.2,2.2,2.2h2.4v2.4c0,1.2,1,2.2,2.2,2.2c1.2,0,2.2-1,2.2-2.2v-2.4h2.4c1.2,0,2.2-1,2.2-2.2S-139.8-257.1-141-257.1z"/>
		</g>
	</g>
</g>
</svg>
