<?xml version="1.0" encoding="utf-8"?>
<!-- Generator: Adobe Illustrator 23.0.2, SVG Export Plug-In . SVG Version: 6.00 Build 0)  -->
<svg version="1.1" id="레이어_1" xmlns="http://www.w3.org/2000/svg" xmlns:xlink="http://www.w3.org/1999/xlink" x="0px"
	 y="0px" viewBox="0 0 177 59" style="enable-background:new 0 0 177 59;" xml:space="preserve">
<style type="text/css">
	.st0{enable-background:new    ;}
	.st1{fill:#FFFFFF;}
	.st2{fill:#0092FF;}
</style>
<title>Vert Logo</title>
<desc>Created with Sketch.</desc>
<g id="Page-1">
	<g id="NanoCrawler" transform="translate(-167.000000, -285.000000)">
		<g id="Vert-Logo" transform="translate(166.000000, 276.000000)">
			<g class="st0">
				<path class="st1" d="M39.5,59.2h-6.6c-0.2,0-0.3-0.1-0.3-0.2v-9.3c0-0.2,0.1-0.3,0.3-0.3h6.6c0.2,0,0.3,0.1,0.3,0.2v0.2
					c0,0.1,0,0.1-0.1,0.2c-0.1,0-0.2,0-0.2,0h-6v3.8h5.5c0.1,0,0.1,0,0.2,0.1c0.1,0,0.1,0.1,0.1,0.2v0.2c0,0.2-0.1,0.2-0.3,0.2h-5.5
					v4h6c0.2,0,0.3,0.1,0.3,0.2v0.2c0,0.1,0,0.1-0.1,0.2C39.6,59.2,39.5,59.2,39.5,59.2z"/>
				<path class="st1" d="M55,59.2h-0.4c0,0-0.1,0-0.2,0c-0.1,0-0.2-0.1-0.3-0.1l-3.8-4.5L46.5,59c-0.1,0.1-0.2,0.1-0.3,0.1
					c-0.1,0-0.1,0-0.2,0h-0.4c-0.1,0-0.2,0-0.3-0.1c-0.1-0.1,0-0.2,0.1-0.3l4.2-4.9l-4-4.3c-0.1-0.1-0.1-0.2-0.1-0.3
					c0.1,0,0.2-0.1,0.3-0.1h0.3c0.2,0,0.4,0.1,0.5,0.2l3.6,3.9l3.6-3.9c0.1-0.1,0.1-0.1,0.2-0.2c0.1,0,0.2,0,0.2,0h0.4
					c0.4,0,0.4,0.1,0.2,0.3L51,54l4.3,4.9v0.1c0,0.1,0,0.1,0,0.2C55.2,59.2,55.1,59.2,55,59.2z"/>
				<path class="st1" d="M66.3,55.5H62v3.5c0,0.2-0.1,0.2-0.3,0.2h-0.3c-0.2,0-0.4-0.1-0.4-0.2v-9.3c0-0.2,0.1-0.3,0.4-0.3h5
					c1,0,1.7,0.2,2.3,0.6c0.6,0.4,0.8,0.9,0.8,1.6v1.8c0,0.7-0.3,1.2-0.8,1.6C68.1,55.3,67.3,55.5,66.3,55.5z M68.5,51.5
					c0-0.5-0.2-0.8-0.5-1.1c-0.4-0.3-0.9-0.4-1.6-0.4H62v4.8h4.4c1.4,0,2.2-0.5,2.2-1.5V51.5z"/>
				<path class="st1" d="M83,59.2h-6.9c-0.2,0-0.4-0.1-0.4-0.2v-9.3c0-0.2,0.1-0.3,0.4-0.3h0.3c0.2,0,0.4,0.1,0.4,0.3v8.9H83
					c0.2,0,0.3,0.1,0.3,0.2v0.2C83.3,59.1,83.2,59.2,83,59.2z"/>
				<path class="st1" d="M95,59.2h-2.8c-1,0-1.7-0.2-2.3-0.5C89.3,58.3,89,57.8,89,57v-5.5c0-0.7,0.3-1.2,0.8-1.6
					c0.6-0.4,1.3-0.6,2.3-0.6H95c1,0,1.7,0.2,2.3,0.6c0.6,0.4,0.9,0.9,0.9,1.6V57c0,0.7-0.3,1.3-0.8,1.6C96.8,59,96,59.2,95,59.2z
					 M97.1,51.5c0-0.5-0.2-0.8-0.5-1.1C96.2,50.1,95.7,50,95,50h-2.8c-0.7,0-1.3,0.1-1.6,0.4C90.2,50.7,90,51,90,51.5V57
					c0,0.5,0.2,0.8,0.5,1.1c0.4,0.3,0.9,0.4,1.6,0.4H95c0.7,0,1.3-0.1,1.6-0.4c0.4-0.3,0.5-0.7,0.5-1.1V51.5z"/>
				<path class="st1" d="M113.3,59v0.1c0,0.1-0.1,0.1-0.2,0.1h-0.5c-0.2,0-0.3,0-0.4-0.1l-2.7-3.9h-4v3.8c0,0.2-0.1,0.2-0.4,0.2
					h-0.2c-0.3,0-0.4-0.1-0.4-0.2v-9.4c0-0.2,0.1-0.2,0.4-0.2h5c1,0,1.8,0.2,2.4,0.5c0.6,0.4,0.8,0.9,0.8,1.6V53
					c0,0.5-0.2,1-0.5,1.3c-0.4,0.3-1,0.6-1.9,0.9l2.7,3.7C113.3,58.9,113.3,58.9,113.3,59z M112,51.5c0-0.5-0.2-0.8-0.6-1.1
					s-0.9-0.4-1.6-0.4h-4.3v4.5h4.3c0.7,0,1.3-0.1,1.6-0.4s0.6-0.6,0.6-1.1V51.5z"/>
				<path class="st1" d="M126.6,59.2H120c-0.2,0-0.3-0.1-0.3-0.2v-9.3c0-0.2,0.1-0.3,0.3-0.3h6.6c0.2,0,0.3,0.1,0.3,0.2v0.2
					c0,0.1,0,0.1-0.1,0.2c-0.1,0-0.2,0-0.2,0h-6v3.8h5.5c0.1,0,0.1,0,0.2,0.1c0.1,0,0.1,0.1,0.1,0.2v0.2c0,0.2-0.1,0.2-0.3,0.2h-5.5
					v4h6c0.2,0,0.3,0.1,0.3,0.2v0.2c0,0.1,0,0.1-0.1,0.2C126.7,59.2,126.6,59.2,126.6,59.2z"/>
				<path class="st1" d="M142.1,59v0.1c0,0.1-0.1,0.1-0.2,0.1h-0.5c-0.2,0-0.3,0-0.4-0.1l-2.7-3.9h-4v3.8c0,0.2-0.1,0.2-0.4,0.2
					h-0.2c-0.3,0-0.4-0.1-0.4-0.2v-9.4c0-0.2,0.1-0.2,0.4-0.2h5c1,0,1.8,0.2,2.4,0.5c0.6,0.4,0.8,0.9,0.8,1.6V53
					c0,0.5-0.2,1-0.5,1.3c-0.4,0.3-1,0.6-1.9,0.9l2.7,3.7C142.1,58.9,142.1,58.9,142.1,59z M140.8,51.5c0-0.5-0.2-0.8-0.6-1.1
					s-0.9-0.4-1.6-0.4h-4.3v4.5h4.3c0.7,0,1.3-0.1,1.6-0.4s0.6-0.6,0.6-1.1V51.5z"/>
			</g>
			<g>
				<g>
					<path class="st2" d="M33.2,20.9h8.5c3.8,2.5,5.8,3.9,6.2,4.2c4.2-2.8,6.4-4.2,6.7-4.2h12.1v0.2c-6.2,3.9-10.5,6.6-12.7,8.1
						c2.2,1,6.2,4,11.7,9c2.7,3,4.1,4.6,4.1,4.9h-0.1c-8.9-5.3-15.5-8.7-19.8-10.4c-4.4,1.8-11,5.2-19.8,10.4V43
						c1.5-2.8,4.2-6.4,8.2-10.7c0.1,0,1-0.8,2.6-2.4l2.9-2.3l-10.7-6.6V20.9z"/>
				</g>
				<g>
					<path class="st1" d="M67.4,21.3h17.8c1.1,0,2.1,0.6,2.7,1.8c0.1,0.4,0.1,0.8,0.1,1c0,0.9-0.3,1.9-1,3c-1.2,1.1-3.4,1.7-6.7,1.7
						h-8.1c-0.1,0-0.5,1.2-1.2,3.6c-0.2,0.7-0.4,1.1-0.5,1.2h-5.3l-0.1-0.1c1.2-3.6,2.2-7,3.1-10.2v-0.4
						C68.4,22.4,68,21.9,67.4,21.3L67.4,21.3z M73.1,26.1H82c0.3-0.9,0.4-1.5,0.4-1.6v-0.2c0-0.3-0.1-0.5-0.4-0.5h-7
						c-0.8,0-1.4,0.4-1.6,1.1L73.1,26.1z"/>
					<path class="st1" d="M88.7,21.3H107v0.1c-1.6,1.6-3.2,2.5-4.6,2.5h-6c-0.8,0-1.4,0.4-1.6,1.1l-0.4,1.2h9.5v0.1
						c-1.8,1.7-3.3,2.6-4.5,2.6h-5.8c-0.3,0.8-0.5,1.3-0.5,1.5v0.1c0.1,0.4,0.3,0.6,0.7,0.6h6.4c1.8,0,3.2,0.8,4.2,2.5v0.1h-12
						c-2.8,0-4.4-0.6-5-1.8l-0.1-0.5c1.4-5.1,2.2-7.9,2.3-8.4c0-0.6-0.3-1.1-0.8-1.4V21.3z"/>
					<path class="st1" d="M106.3,21.3h18.3v0.1c-1.6,1.6-3.2,2.5-4.6,2.5h-6c-0.8,0-1.4,0.4-1.6,1.1l-0.4,1.2h9.5v0.1
						c-1.8,1.7-3.3,2.6-4.5,2.6h-5.8c-0.3,0.8-0.5,1.3-0.5,1.5v0.1c0.1,0.4,0.3,0.6,0.7,0.6h6.4c1.8,0,3.2,0.8,4.2,2.5v0.1h-12
						c-2.8,0-4.4-0.6-5-1.8l-0.1-0.5c1.4-5.1,2.2-7.9,2.3-8.4c0-0.6-0.3-1.1-0.8-1.4V21.3z"/>
					<path class="st1" d="M125,21.3h19.6c1.2,0,1.8,0.6,1.8,1.7V23c0,0.4-0.8,3.2-2.4,8.4c-1,1.4-3.3,2.1-7,2.1h-15.1v-0.1
						c1.5-1,2.3-2,2.3-3.1c0.6-1.9,1.3-4.3,2.1-7.3c0-0.6-0.4-1.2-1.2-1.7V21.3z M129.5,30.7h8.7c0.4,0,0.9-0.9,1.2-2.7
						c0.1-0.1,0.5-1.5,1.2-3.9H132c-0.4,0-0.8,0.6-1,1.8C131,25.9,130.5,27.5,129.5,30.7z"/>
				</g>
			</g>
		</g>
	</g>
</g>
</svg>
