<?xml version="1.0" encoding="utf-8"?>
<!-- Generator: Adobe Illustrator 23.0.2, SVG Export Plug-In . SVG Version: 6.00 Build 0)  -->
<svg version="1.1" id="레이어_1" xmlns="http://www.w3.org/2000/svg" xmlns:xlink="http://www.w3.org/1999/xlink" x="0px"
	 y="0px" viewBox="0 0 177 59" style="enable-background:new 0 0 177 59;" xml:space="preserve">
<style type="text/css">
	.st0{enable-background:new    ;}
	.st1{fill:#FFFFFF;}
	.st2{fill:#0092FF;}
</style>
<title>Vert Logo</title>
<desc>Created with Sketch.</desc>
<g id="Page-1">
	<g id="NanoCrawler" transform="translate(-167.000000, -285.000000)">
		<g id="Vert-Logo" transform="translate(166.000000, 276.000000)">
			<g class="st0">
				<path class="st1" d="M5.3,66.8c-0.4,0-0.7-0.1-0.9-0.2C4.2,66.4,4,66.3,4,66V53.9c0-0.2,0.1-0.4,0.3-0.5
					c0.2-0.2,0.5-0.3,0.9-0.3h9.2c0.4,0,0.7,0.1,0.9,0.2c0.2,0.1,0.3,0.3,0.3,0.5v0.2c0,0.2-0.1,0.4-0.4,0.6
					c-0.3,0.1-0.5,0.2-0.8,0.2H6.9V59h6.8c0.3,0,0.5,0.1,0.8,0.2c0.3,0.1,0.4,0.3,0.4,0.6V60c0,0.2-0.1,0.4-0.3,0.5
					c-0.2,0.1-0.5,0.2-0.9,0.2H6.9v4.4h7.6c0.4,0,0.7,0.1,0.9,0.2c0.2,0.1,0.3,0.3,0.3,0.5V66c0,0.2-0.1,0.4-0.4,0.6
					c-0.3,0.1-0.5,0.2-0.8,0.2H5.3z"/>
				<path class="st1" d="M37.8,66.8c-0.2,0-0.4,0-0.6-0.1c-0.2-0.1-0.5-0.2-0.7-0.3l-4.7-5.2l-4.7,5.2c-0.2,0.2-0.4,0.3-0.7,0.3
					c-0.2,0.1-0.5,0.1-0.6,0.1h-0.5c-0.6,0-0.9-0.1-1.1-0.4c-0.1-0.3-0.1-0.5,0.1-0.7l5.7-6.1l-5.3-5.4c-0.2-0.2-0.2-0.4-0.1-0.7
					s0.5-0.4,1.2-0.4h0.5c0.5,0,1,0.2,1.3,0.5l4.3,4.4l4.4-4.4c0.1-0.1,0.3-0.2,0.5-0.3c0.2-0.1,0.4-0.2,0.7-0.2h0.5
					c0.7,0,1.1,0.1,1.1,0.4c0,0.3,0,0.5-0.2,0.7l-5.3,5.4l5.8,6.2c0,0.1,0,0.2,0,0.3c0,0.1,0,0.2-0.1,0.3c-0.1,0.1-0.2,0.2-0.3,0.3
					c-0.2,0.1-0.4,0.1-0.7,0.1H37.8z"/>
				<path class="st1" d="M51,62V66c0,0.2-0.1,0.3-0.3,0.5c-0.2,0.2-0.5,0.3-0.9,0.3h-0.5c-0.4,0-0.7-0.1-0.9-0.2
					c-0.2-0.1-0.3-0.3-0.3-0.5V53.9c0-0.2,0.1-0.4,0.3-0.5c0.2-0.2,0.5-0.2,0.9-0.2h7c1.6,0,2.9,0.3,3.7,0.9
					c0.9,0.6,1.3,1.4,1.3,2.4v2.4c0,0.9-0.4,1.7-1.3,2.3C59.2,61.7,58,62,56.4,62H51z M58.6,56.4c0-1-0.7-1.5-2.2-1.5H51v5.4h5.3
					c0.7,0,1.2-0.1,1.6-0.3c0.4-0.2,0.6-0.6,0.6-1.2V56.4z"/>
				<path class="st1" d="M72.2,66.8c-0.4,0-0.7-0.1-0.9-0.2C71.1,66.4,71,66.3,71,66V53.9c0-0.2,0.1-0.4,0.3-0.5
					c0.2-0.2,0.5-0.3,0.9-0.3h0.4c0.5,0,0.8,0.1,1,0.3c0.2,0.2,0.3,0.4,0.3,0.5V65h7.9c0.4,0,0.7,0.1,0.9,0.3
					c0.2,0.2,0.3,0.3,0.3,0.5V66c0,0.2-0.1,0.4-0.3,0.5c-0.2,0.1-0.5,0.2-0.8,0.2H72.2z"/>
				<path class="st1" d="M96.8,66.8c-1.6,0-2.9-0.3-3.8-0.9c-0.9-0.6-1.4-1.4-1.4-2.4v-7.2c0-1,0.5-1.8,1.4-2.4
					c0.9-0.6,2.2-0.9,3.8-0.9h3.9c1.6,0,2.9,0.3,3.8,0.9c0.9,0.6,1.4,1.4,1.4,2.4v7.2c0,1-0.5,1.8-1.4,2.4c-0.9,0.6-2.2,0.9-3.8,0.9
					H96.8z M103,56.4c0-1-0.7-1.5-2.2-1.5h-3.9c-1.5,0-2.2,0.5-2.2,1.5v7.1c0,1,0.7,1.6,2.2,1.6h3.9c1.5,0,2.2-0.5,2.2-1.6V56.4z"/>
				<path class="st1" d="M127.5,66.8c-0.5,0-0.9-0.1-1.2-0.4l-3.6-4.8h-4.3V66c0,0.2-0.1,0.4-0.4,0.6c-0.3,0.1-0.6,0.2-0.9,0.2h-0.3
					c-0.3,0-0.6-0.1-0.9-0.2c-0.3-0.1-0.5-0.3-0.5-0.6V53.9c0-0.2,0.1-0.4,0.4-0.6c0.3-0.1,0.6-0.2,0.9-0.2h6.9
					c1.6,0,2.9,0.3,3.8,0.9c0.9,0.6,1.4,1.4,1.4,2.4v1.9c0,1.5-1.1,2.6-3.2,3l3.4,4.5c0.1,0.1,0.2,0.3,0.1,0.6
					c0,0.3-0.4,0.4-1.1,0.4H127.5z M125.9,56.4c0-1-0.8-1.6-2.3-1.6h-5.2v5h5.2c1.5,0,2.3-0.5,2.3-1.5V56.4z"/>
				<path class="st1" d="M140,66.8c-0.4,0-0.7-0.1-0.9-0.2c-0.2-0.1-0.3-0.3-0.3-0.5V53.9c0-0.2,0.1-0.4,0.3-0.5
					c0.2-0.2,0.5-0.3,0.9-0.3h9.2c0.4,0,0.7,0.1,0.9,0.2c0.2,0.1,0.3,0.3,0.3,0.5v0.2c0,0.2-0.1,0.4-0.4,0.6
					c-0.3,0.1-0.5,0.2-0.8,0.2h-7.6V59h6.8c0.3,0,0.5,0.1,0.8,0.2c0.3,0.1,0.4,0.3,0.4,0.6V60c0,0.2-0.1,0.4-0.3,0.5
					c-0.2,0.1-0.5,0.2-0.9,0.2h-6.8v4.4h7.6c0.4,0,0.7,0.1,0.9,0.2c0.2,0.1,0.3,0.3,0.3,0.5V66c0,0.2-0.1,0.4-0.4,0.6
					c-0.3,0.1-0.5,0.2-0.8,0.2H140z"/>
				<path class="st1" d="M172,66.8c-0.5,0-0.9-0.1-1.2-0.4l-3.6-4.8H163V66c0,0.2-0.1,0.4-0.4,0.6c-0.3,0.1-0.6,0.2-0.9,0.2h-0.3
					c-0.3,0-0.6-0.1-0.9-0.2c-0.3-0.1-0.5-0.3-0.5-0.6V53.9c0-0.2,0.1-0.4,0.4-0.6c0.3-0.1,0.6-0.2,0.9-0.2h6.9
					c1.6,0,2.9,0.3,3.8,0.9c0.9,0.6,1.4,1.4,1.4,2.4v1.9c0,1.5-1.1,2.6-3.2,3l3.4,4.5c0.1,0.1,0.2,0.3,0.1,0.6
					c0,0.3-0.4,0.4-1.1,0.4H172z M170.5,56.4c0-1-0.8-1.6-2.3-1.6H163v5h5.2c1.5,0,2.3-0.5,2.3-1.5V56.4z"/>
			</g>
			<g>
				<g>
					<path class="st2" d="M6.4,14.4h12.8c5.7,3.8,8.9,5.9,9.4,6.3c6.3-4.2,9.7-6.3,10.2-6.3h18.3v0.3c-9.4,5.8-15.9,9.9-19.3,12.3
						c3.4,1.5,9.3,6,17.8,13.7c4.1,4.5,6.2,7,6.2,7.4h-0.1c-13.5-8-23.5-13.2-30.1-15.7C25,35,15,40.3,1.7,48v-0.1
						c2.3-4.3,6.4-9.7,12.4-16.1c0.1,0,1.4-1.2,4-3.6l4.4-3.4L6.4,14.6V14.4z"/>
				</g>
				<g>
					<path class="st1" d="M58.3,14.9h26.9c1.7,0,3.1,0.9,4.2,2.7c0.1,0.6,0.2,1.1,0.2,1.5c0,1.4-0.5,2.9-1.6,4.5
						c-1.8,1.7-5.2,2.5-10.1,2.5H65.7c-0.1,0-0.7,1.8-1.8,5.4c-0.3,1.1-0.6,1.7-0.7,1.8h-8L55,33.4c1.8-5.5,3.4-10.6,4.7-15.4v-0.6
						c0-0.7-0.5-1.5-1.5-2.3V14.9z M67,22.2h13.5c0.4-1.4,0.6-2.2,0.6-2.4v-0.3c0-0.5-0.2-0.7-0.6-0.7H69.9c-1.3,0-2.1,0.5-2.4,1.6
						L67,22.2z"/>
					<path class="st1" d="M90.6,14.9h27.7V15c-2.5,2.5-4.8,3.7-7,3.7h-9.2c-1.3,0-2.1,0.5-2.4,1.6l-0.6,1.8h14.4v0.1
						c-2.8,2.6-5.1,3.9-6.8,3.9h-8.8c-0.5,1.2-0.7,2-0.7,2.3v0.1c0.1,0.6,0.4,0.9,1,0.9h9.6c2.8,0,4.9,1.2,6.4,3.7v0.2H96.1
						c-4.2,0-6.7-0.9-7.6-2.7L88.4,30c2.2-7.7,3.3-11.9,3.4-12.8c0-0.9-0.4-1.6-1.2-2.1V14.9z"/>
					<path class="st1" d="M117.2,14.9h27.7V15c-2.5,2.5-4.8,3.7-7,3.7h-9.2c-1.3,0-2.1,0.5-2.4,1.6l-0.6,1.8h14.4v0.1
						c-2.8,2.6-5.1,3.9-6.8,3.9h-8.8c-0.5,1.2-0.7,2-0.7,2.3v0.1c0.1,0.6,0.4,0.9,1,0.9h9.6c2.8,0,4.9,1.2,6.4,3.7v0.2h-18.1
						c-4.2,0-6.7-0.9-7.6-2.7L115,30c2.2-7.7,3.3-11.9,3.4-12.8c0-0.9-0.4-1.6-1.2-2.1V14.9z"/>
					<path class="st1" d="M145.6,14.9h29.7c1.8,0,2.7,0.8,2.7,2.5v0.1c0,0.7-1.2,4.9-3.7,12.7c-1.5,2.1-5,3.2-10.6,3.2h-23v-0.1
						c2.3-1.5,3.4-3.1,3.4-4.6c0.9-2.9,2-6.6,3.2-11.1c0-0.9-0.6-1.8-1.8-2.5V14.9z M152.5,29.1h13.1c0.7,0,1.3-1.3,1.9-4
						c0.1-0.2,0.7-2.2,1.8-5.9h-13c-0.7,0-1.2,0.9-1.5,2.7C154.6,21.9,153.9,24.3,152.5,29.1z"/>
				</g>
			</g>
		</g>
	</g>
</g>
</svg>
